#N canvas 942 306 682 460 12;
#N canvas 694 363 450 310 oscSend 0;
#X obj 55 35 r oscOut;
#X obj 55 72 list prepend send;
#X obj 55 113 list trim;
#X obj 54 194 netsend -u -b;
#X obj 212 49 loadbang;
#X msg 212 85 connect localhost 8000;
#X msg 212 115 connect 127.0.0.1 8000;
#X msg 212 144 disconnect;
#X connect 0 0 1 0;
#X connect 1 0 2 0;
#X connect 2 0 3 0;
#X connect 4 0 5 0;
#X connect 5 0 3 0;
#X connect 6 0 3 0;
#X connect 7 0 3 0;
#X restore 132 28 pd oscSend;
#N canvas 74 180 1238 612 oscReceive 1;
#X msg 396 104 listen 8000;
#X msg 427 148 listen 0;
#X obj 396 205 netreceive -u -b;
#X obj 396 63 loadbang;
#X obj 396 245 oscparse;
#X obj 396 284 list trim;
#X floatatom 397 438 5 0 0 0 - - -;
#X obj 397 326 route unity;
#X obj 267 403 route ready;
#X obj 267 438 print;
#X text 87 414 Checks if connection to Unity was successful, f 24
;
#X text 339 518 Parsed data for footsteps;
#X text 472 63 Immediately bang when PD file is opened;
#X text 498 148 Click to stop listening;
#X text 490 105 Click to listen in to current localhost;
#X text 520 205 How the data is received;
#X text 491 249 Incoming string gets parsed to send incoming data to
the correct routes., f 37;
#X obj 397 477 s jumpSound;
#X obj 397 403 route jump;
#X obj 545 400 route crash;
#X obj 545 476 s crashSound;
#X floatatom 545 435 5 0 0 0 - - -;
#X obj 693 400 route landing;
#X floatatom 693 432 5 0 0 0 - - -;
#X obj 693 474 s landSound;
#X floatatom 817 430 5 0 0 0 - - -;
#X obj 817 399 route height;
#X obj 817 472 s height;
#X obj 930 404 route musicStart;
#X obj 927 474 s musicStart;
#X connect 0 0 2 0;
#X connect 1 0 2 0;
#X connect 2 0 4 0;
#X connect 3 0 0 0;
#X connect 4 0 5 0;
#X connect 5 0 7 0;
#X connect 6 0 17 0;
#X connect 7 0 8 0;
#X connect 7 0 18 0;
#X connect 7 0 19 0;
#X connect 7 0 22 0;
#X connect 7 0 26 0;
#X connect 7 0 28 0;
#X connect 8 0 9 0;
#X connect 18 0 6 0;
#X connect 19 0 21 0;
#X connect 21 0 20 0;
#X connect 22 0 23 0;
#X connect 23 0 24 0;
#X connect 25 0 27 0;
#X connect 26 0 25 0;
#X connect 28 0 29 0;
#X restore 132 60 pd oscReceive;
#X obj 14 74 tgl 15 0 empty empty empty 17 7 0 10 -262144 -1 -1 1 1
;
#X msg 14 106 \; pd dsp \$1;
#X text 12 2 Trigger DSP;
#X text 234 60 Used to receive data from Unity scene.;
#X text 211 28 Not needed for this assignment \, but good to review
for later;
#X text 122 107 Sound #1;
#X obj 14 37 loadbang;
#N canvas -8 -8 1920 997 jump 0;
#X obj 263 543 dac~;
#X obj 460 336 vsl 15 128 0 10 0 1 empty empty empty 0 -9 0 10 -4032
-1 -1 12700 1;
#X obj 314 420 *~;
#X floatatom 381 404 5 0 0 0 - - -;
#X obj 209 95 r jumpSound;
#X text 96 121 Click here to test the sound., f 15;
#X obj 315 289 vcf~ 600 23;
#X obj 316 331 *~ 0.25;
#X obj 413 269 nbx 5 14 -1e+037 1e+037 0 1 empty empty empty 0 -8 0
10 -262144 -1 -1 13 256;
#X obj 207 130 bng 15 250 50 0 empty empty empty 17 7 0 10 -262144
-1 -1;
#X obj 207 278 vline~;
#X obj 267 466 *~;
#X obj 350 155 *~ 50000;
#X obj 350 94 noise~;
#X obj 315 360 bp~ 800 7;
#X obj 351 188 clip~ 60 300;
#X obj 351 235 +~;
#X obj 411 214 nbx 5 14 -1e+037 1e+037 0 1 empty empty empty 0 -8 0
10 -262144 -1 -1 300 256;
#X obj 349 125 lop~ 0.1;
#X text 111 45 Voice Sound #1: Player character's jump sound inspired
Obiwannabe's wind implementation. By Sam Nguyen;
#X msg 207 172 1 100 \, 0 500 75;
#X connect 1 0 3 0;
#X connect 2 0 11 1;
#X connect 3 0 2 1;
#X connect 4 0 9 0;
#X connect 6 0 7 0;
#X connect 7 0 14 0;
#X connect 8 0 6 2;
#X connect 9 0 20 0;
#X connect 10 0 11 0;
#X connect 11 0 0 0;
#X connect 11 0 0 1;
#X connect 12 0 15 0;
#X connect 13 0 6 0;
#X connect 13 0 18 0;
#X connect 14 0 2 0;
#X connect 15 0 16 0;
#X connect 16 0 6 1;
#X connect 17 0 16 1;
#X connect 18 0 12 0;
#X connect 20 0 10 0;
#X restore 127 133 pd jump;
#X text 203 107 Sound #2;
#X text 296 108 Sound #3;
#N canvas 137 144 1336 794 landing 1;
#X obj 123 155 bng 15 250 50 0 empty empty empty 17 7 0 10 -262144
-1 -1;
#X obj 128 635 dac~;
#X obj 123 290 *~;
#X obj 123 214 vline~;
#X obj 123 254 *~;
#X obj 211 246 noise~;
#X msg 123 185 1 10 0 \, 0 300 2;
#X obj 283 494 hsl 128 15 0 1 0 1 empty empty empty -2 -8 0 10 -4032
-1 -1 4700 1;
#X obj 211 275 bp~ 6000 8;
#X obj 123 325 *~ 4;
#X obj 123 119 r landSound;
#X text 244 183 Message object to ramp the sound down;
#X text 176 214 Smooths the sound to remove pops;
#X text 265 247 Random noise object;
#X text 288 277 Keeps the noise samples within a certain range;
#X text 419 496 Volume control;
#X text 71 85 Sound #2: Cymbal landing sound effect. By Sam Nguyen
;
#X obj 135 583 *~;
#X obj 91 544 *~;
#X obj 125 394 *~;
#X obj 218 542 *~;
#X floatatom 153 546 5 0 0 0 - - -;
#X obj 199 380 hsl 128 15 0 10 0 1 empty empty Gain -2 -8 0 10 -257985
-1 -1 5300 1;
#X text 362 449 Reverb implementation referenced by QCGInteractiveMusic
on YOUTUBE;
#X text 334 376 Initial impact loudness;
#X obj 155 451 rev2~ 100 80 1000 20, f 27;
#X connect 0 0 6 0;
#X connect 2 0 9 0;
#X connect 3 0 4 0;
#X connect 3 0 4 1;
#X connect 4 0 2 0;
#X connect 5 0 8 0;
#X connect 6 0 3 0;
#X connect 7 0 20 0;
#X connect 7 0 18 0;
#X connect 8 0 2 1;
#X connect 9 0 19 0;
#X connect 10 0 0 0;
#X connect 17 0 1 0;
#X connect 17 0 1 1;
#X connect 18 0 1 0;
#X connect 19 0 17 0;
#X connect 19 0 25 0;
#X connect 20 0 1 1;
#X connect 21 0 17 1;
#X connect 22 0 19 1;
#X connect 25 0 18 1;
#X connect 25 1 20 1;
#X restore 208 134 pd landing;
#N canvas 194 316 802 578 crashing 0;
#X obj 183 469 *~;
#X obj 177 512 dac~;
#X obj 451 357 vsl 15 128 0 3 0 1 empty empty empty 0 -9 0 10 -4032
-1 -1 8800 1;
#X obj 182 203 bng 15 250 50 0 empty empty empty 17 7 0 10 -262144
-1 -1;
#X floatatom 253 464 5 0 0 0 - - -;
#X obj 234 213 nbx 5 14 -1e+037 1e+037 0 1 empty empty empty 0 -8 0
10 -262144 -1 -1 24 256;
#X obj 182 298 mtof;
#X obj 182 328 phasor~;
#X obj 265 292 vline~;
#X obj 182 378 *~;
#X obj 263 330 *~ -1;
#X obj 181 415 *~;
#X obj 182 250 + 1;
#X text 293 202 Changes the number of pulses to shoot out when played
, f 29;
#X obj 262 365 phasor~;
#X obj 182 159 r crashSound;
#X text 479 420 Volume changer;
#X obj 223 398 clip~ 0.2 0.7;
#X msg 265 245 1 25 \, 0 300 100;
#X text 324 393 Keeps the samples within a certain range.;
#X text 128 102 Sound #3 Inspired by the pulsewave patch which is configured
to make create an echo-y death sound whenever the player collides with
a structure. By Sam Nguyen;
#X text 71 299 Midi to Float;
#X text 320 292 Smooth envelope;
#X connect 0 0 1 0;
#X connect 0 0 1 1;
#X connect 2 0 4 0;
#X connect 3 0 18 0;
#X connect 3 0 12 0;
#X connect 4 0 0 1;
#X connect 5 0 12 1;
#X connect 6 0 7 0;
#X connect 6 0 10 0;
#X connect 7 0 9 0;
#X connect 8 0 9 1;
#X connect 9 0 11 0;
#X connect 10 0 14 0;
#X connect 11 0 0 0;
#X connect 12 0 6 0;
#X connect 14 0 17 0;
#X connect 15 0 3 0;
#X connect 17 0 11 1;
#X connect 18 0 8 0;
#X restore 297 134 pd crashing;
#N canvas 0 50 1085 694 music 1;
#X floatatom 49 52 5 0 0 0 - - -;
#X obj 51 130 mtof;
#X obj 129 582 dac~;
#X floatatom 250 589 5 0 0 0 - - -;
#X text 281 603 vol;
#X text 93 46 MIDI pitch;
#N canvas 772 207 700 384 many_notes 0;
#X obj 37 37 inlet;
#X obj 35 320 outlet;
#X obj 37 96 f 0;
#X obj 245 209 table pitches;
#X obj 37 188 tabread pitches;
#X floatatom 37 212 5 0 0 0 - - -;
#X obj 37 117 + 1;
#X floatatom 37 159 5 0 0 0 - - -;
#X obj 192 47 inlet;
#X obj 63 243;
#X obj 113 46 inlet;
#X obj 36 138 % 12;
#X msg 168 177 \; pitches 0 62 62 74 0 69 0 68 67 65 62 65 67;
#X obj 43 69 metro 150;
#X obj 61 282 - 12;
#X connect 0 0 13 0;
#X connect 2 0 6 0;
#X connect 4 0 5 0;
#X connect 5 0 1 0;
#X connect 6 0 11 0;
#X connect 7 0 4 0;
#X connect 8 0 12 0;
#X connect 10 0 13 1;
#X connect 11 0 2 1;
#X connect 11 0 7 0;
#X connect 13 0 2 0;
#X restore 600 164 pd many_notes;
#X obj 564 378 s notes;
#X floatatom 562 329 5 0 0 0 - - -;
#X obj 42 19 r notes;
#X obj 400 465 vsl 15 128 0 0.5 0 0 empty empty empty 0 -9 0 10 -258113
-1 -1 12700 1;
#X obj 141 527 *~;
#X obj 146 339 vcf~ 1, f 16;
#N canvas 0 50 643 393 env 0;
#X obj 91 233 line~;
#X obj 112 96 bng 15 250 50 0 empty empty empty 17 7 0 10 -262144 -1
-1;
#X obj 138 186 pack 0 500;
#X floatatom 198 142 5 0 0 0 - - -;
#X obj 79 37 inlet;
#X obj 201 44 inlet;
#X obj 77 260 outlet~;
#X msg 77 150 1 5;
#X obj 139 152 del 50;
#X connect 0 0 6 0;
#X connect 1 0 7 0;
#X connect 1 0 8 0;
#X connect 2 0 0 0;
#X connect 3 0 2 1;
#X connect 4 0 1 0;
#X connect 5 0 3 0;
#X connect 7 0 0 0;
#X connect 8 0 2 0;
#X restore 138 171 pd env;
#X obj 146 248 *~ 5000;
#X floatatom 208 147 5 0 0 0 - - -;
#N canvas 0 50 564 341 phasors 0;
#X obj 33 141 phasor~;
#X obj 87 133 phasor~;
#X obj 87 99 * 0.503;
#X obj 163 138 phasor~;
#X obj 163 109 * 2.01;
#X obj 91 40 inlet;
#X obj 126 293 outlet~;
#X obj 158 173 *~ 2;
#X obj 90 169 *~ 0.4;
#X obj 102 261 expr~ $v1 > $v2;
#X obj 207 206 *~ 0.4;
#X obj 191 239 +~ 0.5;
#X obj 207 182 osc~ 3;
#X connect 0 0 9 0;
#X connect 1 0 8 0;
#X connect 2 0 1 0;
#X connect 3 0 7 0;
#X connect 4 0 3 0;
#X connect 5 0 0 0;
#X connect 5 0 2 0;
#X connect 5 0 4 0;
#X connect 9 0 6 0;
#X connect 10 0 11 0;
#X connect 11 0 9 1;
#X connect 12 0 10 0;
#X restore 53 213 pd phasors;
#X text 104 376 acid washer;
#X obj 563 88 tgl 15 0 empty empty empty 17 7 0 10 -262144 -1 -1 1
1;
#X obj 55 79 t f b, f 15;
#N canvas 0 50 1021 460 melody 0;
#X obj 111 58 inlet;
#X msg 153 275 \; pitches 0 60 60 74 0 69 0 68 67 65 62 65 67;
#X msg 207 240 \; pitches 0 59 59 74 0 69 0 68 67 65 62 65 67;
#X msg 244 210 \; pitches 0 58 58 74 0 69 0 68 67 65 62 65 67;
#X obj 148 100 f 0;
#X obj 146 124 + 1;
#X floatatom 146 171 5 0 0 0 - - -;
#X msg 74 313 \; pitches 0 62 62 74 0 69 0 68 67 65 62 65 67;
#X obj 147 148 % 4;
#X obj 213 180 sel 0 1 2 3;
#X connect 0 0 4 0;
#X connect 4 0 5 0;
#X connect 5 0 8 0;
#X connect 6 0 9 0;
#X connect 8 0 4 1;
#X connect 8 0 6 0;
#X connect 9 0 7 0;
#X connect 9 1 1 0;
#X connect 9 2 2 0;
#X connect 9 3 3 0;
#X restore 486 207 pd melody;
#X obj 270 281 1.5;
#X obj 487 170 metro 1820;
#X obj 557 36 r musicStart;
#X obj 176 120 100;
#X connect 0 0 19 0;
#X connect 1 0 15 0;
#X connect 1 0 16 0;
#X connect 3 0 11 1;
#X connect 6 0 8 0;
#X connect 8 0 7 0;
#X connect 9 0 0 0;
#X connect 10 0 3 0;
#X connect 11 0 2 0;
#X connect 11 0 2 1;
#X connect 12 1 11 0;
#X connect 13 0 14 0;
#X connect 14 0 12 1;
#X connect 15 0 14 1;
#X connect 16 0 12 0;
#X connect 18 0 6 0;
#X connect 18 0 22 0;
#X connect 19 0 1 0;
#X connect 19 1 13 0;
#X connect 21 0 12 2;
#X connect 22 0 20 0;
#X connect 23 0 18 0;
#X connect 24 0 13 1;
#X restore 438 138 pd music;
#X text 435 112 BGM;
#X connect 2 0 3 0;
#X connect 8 0 2 0;
