#N canvas 942 368 682 398 12;
#N canvas 694 363 450 310 oscSend 0;
#X obj 55 35 r oscOut;
#X obj 55 72 list prepend send;
#X obj 55 113 list trim;
#X obj 54 194 netsend -u -b;
#X obj 212 49 loadbang;
#X msg 212 85 connect localhost 8000;
#X msg 212 115 connect 127.0.0.1 8000;
#X msg 212 144 disconnect;
#X connect 0 0 1 0;
#X connect 1 0 2 0;
#X connect 2 0 3 0;
#X connect 4 0 5 0;
#X connect 5 0 3 0;
#X connect 6 0 3 0;
#X connect 7 0 3 0;
#X restore 132 28 pd oscSend;
#N canvas 724 303 1057 612 oscReceive 1;
#X msg 396 104 listen 8000;
#X msg 427 148 listen 0;
#X obj 396 205 netreceive -u -b;
#X obj 396 63 loadbang;
#X obj 396 245 oscparse;
#X obj 396 275 list trim;
#X floatatom 397 438 5 0 0 0 - - -;
#X obj 397 326 route unity;
#X obj 267 403 route ready;
#X obj 267 438 print;
#X text 87 414 Checks if connection to Unity was successful, f 24
;
#X text 339 518 Parsed data for footsteps;
#X text 472 63 Immediately bang when PD file is opened;
#X text 498 148 Click to stop listening;
#X text 490 105 Click to listen in to current localhost;
#X text 520 205 How the data is received;
#X text 491 249 Incoming string gets parsed to send incoming data to
the correct routes., f 37;
#X obj 397 477 s jumpSound;
#X obj 397 403 route jump;
#X obj 545 400 route crash;
#X obj 545 476 s crashSound;
#X floatatom 545 435 5 0 0 0 - - -;
#X obj 693 400 route landing;
#X floatatom 693 432 5 0 0 0 - - -;
#X obj 693 474 s landSound;
#X floatatom 817 430 5 0 0 0 - - -;
#X obj 817 399 route height;
#X obj 817 472 s height;
#X connect 0 0 2 0;
#X connect 1 0 2 0;
#X connect 2 0 4 0;
#X connect 3 0 0 0;
#X connect 4 0 5 0;
#X connect 5 0 7 0;
#X connect 6 0 17 0;
#X connect 7 0 8 0;
#X connect 7 0 18 0;
#X connect 7 0 19 0;
#X connect 7 0 22 0;
#X connect 7 0 26 0;
#X connect 8 0 9 0;
#X connect 18 0 6 0;
#X connect 19 0 21 0;
#X connect 21 0 20 0;
#X connect 22 0 23 0;
#X connect 23 0 24 0;
#X connect 25 0 27 0;
#X connect 26 0 25 0;
#X restore 132 60 pd oscReceive;
#X obj 14 74 tgl 15 0 empty empty empty 17 7 0 10 -262144 -1 -1 1 1
;
#X msg 14 106 \; pd dsp \$1;
#X text 12 2 Trigger DSP;
#X text 234 60 Used to receive data from Unity scene.;
#X text 211 28 Not needed for this assignment \, but good to review
for later;
#X text 122 107 Sound #1;
#X obj 14 37 loadbang;
#N canvas 140 303 581 542 jump 1;
#X obj 247 93 bng 15 250 50 0 empty empty empty 17 7 0 10 -262144 -1
-1;
#X obj 247 366 vline~;
#X obj 196 420 *~;
#X obj 184 502 dac~;
#X msg 247 322 1 25 \, 0 500 75;
#X obj 130 321 mtof;
#X obj 208 162 nbx 5 14 -1e+037 1e+037 0 1 empty empty empty 0 -8 0
10 -262144 -1 -1 55 256;
#X obj 130 352 osc~;
#X obj 371 288 vsl 15 128 0 1 0 1 empty empty empty 0 -9 0 10 -4032
-1 -1 3800 1;
#X obj 197 457 *~;
#X floatatom 270 439 5 0 0 0 - - -;
#X obj 247 53 r jumpSound;
#X text 87 17 Voice Sound #1: Player character's jump sound by Sam
Nguyen;
#X floatatom 130 287 5 0 0 0 - - -;
#X obj 130 257 +;
#X obj 91 108 float;
#X obj 160 107 + 1;
#X floatatom 93 207 5 0 0 0 - - -;
#X obj 129 381 clip~ 0.2 0.8;
#X obj 91 161 % 8;
#X text 273 90 Click here to test the sound.;
#X obj 174 201 +;
#X floatatom 174 232 5 0 0 0 - - -;
#X obj 134 159 r height;
#X connect 0 0 15 0;
#X connect 0 0 4 0;
#X connect 1 0 2 1;
#X connect 2 0 9 0;
#X connect 4 0 1 0;
#X connect 5 0 7 0;
#X connect 6 0 21 1;
#X connect 7 0 18 0;
#X connect 8 0 10 0;
#X connect 9 0 3 0;
#X connect 9 0 3 1;
#X connect 10 0 9 1;
#X connect 11 0 0 0;
#X connect 13 0 5 0;
#X connect 14 0 13 0;
#X connect 15 0 16 0;
#X connect 15 0 19 0;
#X connect 16 0 15 1;
#X connect 17 0 14 0;
#X connect 17 0 19 0;
#X connect 18 0 2 0;
#X connect 19 0 17 0;
#X connect 21 0 22 0;
#X connect 22 0 14 1;
#X connect 23 0 21 0;
#X restore 127 133 pd jump;
#X text 203 106 Sound #2;
#X obj 621 392;
#X text 296 108 Sound #3;
#N canvas -8 -8 1920 997 landing 0;
#X obj 43 53 bng 15 250 50 0 empty empty empty 17 7 0 10 -262144 -1
-1;
#X obj 45 313 dac~;
#X obj 43 188 *~;
#X obj 43 112 vline~;
#X obj 43 152 *~;
#X obj 109 120 noise~;
#X msg 43 83 1 10 0 \, 0 300 2;
#X obj 44 257 *~;
#X obj 139 212 hsl 128 15 0 1 0 1 empty empty empty -2 -8 0 10 -4032
-1 -1 6500 1;
#X floatatom 90 240 5 0 0 0 - - -;
#X obj 110 158 bp~ 6000 8;
#X obj 43 223 *~ 4;
#X obj 43 17 r landSound;
#X connect 0 0 6 0;
#X connect 2 0 11 0;
#X connect 3 0 4 0;
#X connect 3 0 4 1;
#X connect 4 0 2 0;
#X connect 5 0 10 0;
#X connect 6 0 3 0;
#X connect 7 0 1 0;
#X connect 7 0 1 1;
#X connect 8 0 9 0;
#X connect 9 0 7 1;
#X connect 10 0 2 1;
#X connect 11 0 7 0;
#X connect 12 0 0 0;
#X restore 208 134 pd landing;
#N canvas 131 304 1524 610 crashing 0;
#X obj 183 469 *~;
#X obj 177 512 dac~;
#X obj 364 314 vsl 15 128 0 1 0 1 empty empty empty 0 -9 0 10 -4032
-1 -1 5900 1;
#X text 132 106 Sound #3 Inspired by the pulsewave patch which is configured
to make it seem like feet were landing on the ground.;
#X obj 182 202 bng 15 250 50 0 empty empty empty 17 7 0 10 -262144
-1 -1;
#X floatatom 251 445 5 0 0 0 - - -;
#X obj 234 213 nbx 5 14 -1e+037 1e+037 0 0 empty empty empty 0 -8 0
10 -262144 -1 -1 8 256;
#X obj 182 298 mtof;
#X obj 182 339 phasor~;
#X obj 265 292 vline~;
#X obj 182 378 *~;
#X obj 263 338 *~ -1;
#X obj 181 415 *~;
#X obj 182 250 + 1;
#X text 293 202 Changes the number of pulses to shoot out when played
, f 29;
#X obj 263 371 phasor~;
#X obj 182 159 r crashSound;
#X text 392 365 Volume changer;
#X msg 265 245 1 25 \, 0 250 100;
#X obj 222 402 clip~ 0.3 0.6;
#X connect 0 0 1 0;
#X connect 0 0 1 1;
#X connect 2 0 5 0;
#X connect 4 0 18 0;
#X connect 4 0 13 0;
#X connect 5 0 0 1;
#X connect 6 0 13 1;
#X connect 7 0 8 0;
#X connect 7 0 11 0;
#X connect 8 0 10 0;
#X connect 9 0 10 1;
#X connect 10 0 12 0;
#X connect 11 0 15 0;
#X connect 12 0 0 0;
#X connect 13 0 7 0;
#X connect 15 0 19 0;
#X connect 16 0 4 0;
#X connect 18 0 9 0;
#X connect 19 0 12 1;
#X restore 297 134 pd crashing;
#X connect 2 0 3 0;
#X connect 8 0 2 0;
