#N canvas 942 306 682 460 12;
#N canvas 866 264 450 310 oscSend 1;
#X obj 55 35 r oscOut;
#X obj 55 72 list prepend send;
#X obj 55 113 list trim;
#X obj 54 194 netsend -u -b;
#X obj 212 49 loadbang;
#X msg 212 115 connect 127.0.0.1 8000;
#X msg 212 144 disconnect;
#X msg 212 85 connect localhost 8001;
#X connect 0 0 1 0;
#X connect 1 0 2 0;
#X connect 2 0 3 0;
#X connect 4 0 7 0;
#X connect 5 0 3 0;
#X connect 6 0 3 0;
#X connect 7 0 3 0;
#X restore 132 28 pd oscSend;
#N canvas 74 180 1238 612 oscReceive 0;
#X msg 396 104 listen 8000;
#X msg 427 148 listen 0;
#X obj 396 205 netreceive -u -b;
#X obj 396 63 loadbang;
#X obj 396 245 oscparse;
#X obj 396 284 list trim;
#X floatatom 397 438 5 0 0 0 - - -;
#X obj 397 326 route unity;
#X obj 267 403 route ready;
#X obj 267 438 print;
#X text 87 414 Checks if connection to Unity was successful, f 24
;
#X text 339 518 Parsed data for footsteps;
#X text 472 63 Immediately bang when PD file is opened;
#X text 498 148 Click to stop listening;
#X text 490 105 Click to listen in to current localhost;
#X text 520 205 How the data is received;
#X text 491 249 Incoming string gets parsed to send incoming data to
the correct routes., f 37;
#X obj 397 477 s jumpSound;
#X obj 397 403 route jump;
#X obj 545 400 route crash;
#X obj 545 476 s crashSound;
#X floatatom 545 435 5 0 0 0 - - -;
#X obj 693 400 route landing;
#X floatatom 693 432 5 0 0 0 - - -;
#X obj 693 474 s landSound;
#X floatatom 817 430 5 0 0 0 - - -;
#X obj 817 399 route height;
#X obj 817 472 s height;
#X obj 930 404 route musicStart;
#X obj 927 474 s musicStart;
#X connect 0 0 2 0;
#X connect 1 0 2 0;
#X connect 2 0 4 0;
#X connect 3 0 0 0;
#X connect 4 0 5 0;
#X connect 5 0 7 0;
#X connect 6 0 17 0;
#X connect 7 0 8 0;
#X connect 7 0 18 0;
#X connect 7 0 19 0;
#X connect 7 0 22 0;
#X connect 7 0 26 0;
#X connect 7 0 28 0;
#X connect 8 0 9 0;
#X connect 18 0 6 0;
#X connect 19 0 21 0;
#X connect 21 0 20 0;
#X connect 22 0 23 0;
#X connect 23 0 24 0;
#X connect 25 0 27 0;
#X connect 26 0 25 0;
#X connect 28 0 29 0;
#X restore 132 60 pd oscReceive;
#X obj 14 74 tgl 15 0 empty empty empty 17 7 0 10 -262144 -1 -1 1 1
;
#X msg 14 106 \; pd dsp \$1;
#X text 12 2 Trigger DSP;
#X text 234 60 Used to receive data from Unity scene.;
#X text 211 28 Not needed for this assignment \, but good to review
for later;
#X text 122 107 Sound #1;
#X obj 14 37 loadbang;
#N canvas -8 -8 1920 997 jump 0;
#X obj 263 543 dac~;
#X obj 460 336 vsl 15 128 0 10 0 1 empty empty empty 0 -9 0 10 -4032
-1 -1 12700 1;
#X obj 314 420 *~;
#X floatatom 381 404 5 0 0 0 - - -;
#X obj 209 95 r jumpSound;
#X text 96 121 Click here to test the sound., f 15;
#X obj 315 289 vcf~ 600 23;
#X obj 316 331 *~ 0.25;
#X obj 413 269 nbx 5 14 -1e+037 1e+037 0 1 empty empty empty 0 -8 0
10 -262144 -1 -1 13 256;
#X obj 207 130 bng 15 250 50 0 empty empty empty 17 7 0 10 -262144
-1 -1;
#X obj 207 278 vline~;
#X obj 267 466 *~;
#X obj 350 155 *~ 50000;
#X obj 350 94 noise~;
#X obj 315 360 bp~ 800 7;
#X obj 351 188 clip~ 60 300;
#X obj 351 235 +~;
#X obj 411 214 nbx 5 14 -1e+037 1e+037 0 1 empty empty empty 0 -8 0
10 -262144 -1 -1 300 256;
#X obj 349 125 lop~ 0.1;
#X text 111 45 Voice Sound #1: Player character's jump sound inspired
Obiwannabe's wind implementation. By Sam Nguyen;
#X msg 207 172 1 100 \, 0 500 75;
#X connect 1 0 3 0;
#X connect 2 0 11 1;
#X connect 3 0 2 1;
#X connect 4 0 9 0;
#X connect 6 0 7 0;
#X connect 7 0 14 0;
#X connect 8 0 6 2;
#X connect 9 0 20 0;
#X connect 10 0 11 0;
#X connect 11 0 0 0;
#X connect 11 0 0 1;
#X connect 12 0 15 0;
#X connect 13 0 6 0;
#X connect 13 0 18 0;
#X connect 14 0 2 0;
#X connect 15 0 16 0;
#X connect 16 0 6 1;
#X connect 17 0 16 1;
#X connect 18 0 12 0;
#X connect 20 0 10 0;
#X restore 127 133 pd jump;
#X text 203 107 Sound #2;
#X text 296 108 Sound #3;
#N canvas 137 144 1336 794 landing 0;
#X obj 123 155 bng 15 250 50 0 empty empty empty 17 7 0 10 -262144
-1 -1;
#X obj 128 635 dac~;
#X obj 123 290 *~;
#X obj 123 214 vline~;
#X obj 123 254 *~;
#X obj 211 246 noise~;
#X msg 123 185 1 10 0 \, 0 300 2;
#X obj 283 494 hsl 128 15 0 1 0 1 empty empty empty -2 -8 0 10 -4032
-1 -1 4700 1;
#X obj 211 275 bp~ 6000 8;
#X obj 123 325 *~ 4;
#X obj 123 119 r landSound;
#X text 244 183 Message object to ramp the sound down;
#X text 176 214 Smooths the sound to remove pops;
#X text 265 247 Random noise object;
#X text 288 277 Keeps the noise samples within a certain range;
#X text 419 496 Volume control;
#X text 71 85 Sound #2: Cymbal landing sound effect. By Sam Nguyen
;
#X obj 135 583 *~;
#X obj 91 544 *~;
#X obj 125 394 *~;
#X obj 218 542 *~;
#X floatatom 153 546 5 0 0 0 - - -;
#X obj 199 380 hsl 128 15 0 10 0 1 empty empty Gain -2 -8 0 10 -257985
-1 -1 5300 1;
#X text 362 449 Reverb implementation referenced by QCGInteractiveMusic
on YOUTUBE;
#X text 334 376 Initial impact loudness;
#X obj 155 451 rev2~ 100 80 1000 20, f 27;
#X connect 0 0 6 0;
#X connect 2 0 9 0;
#X connect 3 0 4 0;
#X connect 3 0 4 1;
#X connect 4 0 2 0;
#X connect 5 0 8 0;
#X connect 6 0 3 0;
#X connect 7 0 20 0;
#X connect 7 0 18 0;
#X connect 8 0 2 1;
#X connect 9 0 19 0;
#X connect 10 0 0 0;
#X connect 17 0 1 0;
#X connect 17 0 1 1;
#X connect 18 0 1 0;
#X connect 19 0 17 0;
#X connect 19 0 25 0;
#X connect 20 0 1 1;
#X connect 21 0 17 1;
#X connect 22 0 19 1;
#X connect 25 0 18 1;
#X connect 25 1 20 1;
#X restore 208 134 pd landing;
#N canvas 194 316 802 578 crashing 0;
#X obj 183 469 *~;
#X obj 177 512 dac~;
#X obj 451 357 vsl 15 128 0 3 0 1 empty empty empty 0 -9 0 10 -4032
-1 -1 8800 1;
#X obj 182 203 bng 15 250 50 0 empty empty empty 17 7 0 10 -262144
-1 -1;
#X floatatom 253 464 5 0 0 0 - - -;
#X obj 234 213 nbx 5 14 -1e+037 1e+037 0 1 empty empty empty 0 -8 0
10 -262144 -1 -1 24 256;
#X obj 182 298 mtof;
#X obj 182 328 phasor~;
#X obj 265 292 vline~;
#X obj 182 378 *~;
#X obj 263 330 *~ -1;
#X obj 181 415 *~;
#X obj 182 250 + 1;
#X text 293 202 Changes the number of pulses to shoot out when played
, f 29;
#X obj 262 365 phasor~;
#X obj 182 159 r crashSound;
#X text 479 420 Volume changer;
#X obj 223 398 clip~ 0.2 0.7;
#X msg 265 245 1 25 \, 0 300 100;
#X text 324 393 Keeps the samples within a certain range.;
#X text 128 102 Sound #3 Inspired by the pulsewave patch which is configured
to make create an echo-y death sound whenever the player collides with
a structure. By Sam Nguyen;
#X text 71 299 Midi to Float;
#X text 320 292 Smooth envelope;
#X connect 0 0 1 0;
#X connect 0 0 1 1;
#X connect 2 0 4 0;
#X connect 3 0 18 0;
#X connect 3 0 12 0;
#X connect 4 0 0 1;
#X connect 5 0 12 1;
#X connect 6 0 7 0;
#X connect 6 0 10 0;
#X connect 7 0 9 0;
#X connect 8 0 9 1;
#X connect 9 0 11 0;
#X connect 10 0 14 0;
#X connect 11 0 0 0;
#X connect 12 0 6 0;
#X connect 14 0 17 0;
#X connect 15 0 3 0;
#X connect 17 0 11 1;
#X connect 18 0 8 0;
#X restore 297 134 pd crashing;
#N canvas 144 167 1150 694 music 0;
#X floatatom 713 253 5 0 0 0 - - -;
#X obj 400 465 vsl 15 128 0 1 0 1 empty empty empty 0 -9 0 10 -258113
-1 -1 0 1;
#X obj 660 152 tgl 15 0 empty empty empty 17 7 0 10 -262144 -1 -1 0
1;
#X obj 654 100 r musicStart;
#X obj 525 150 metro 1680;
#X obj 753 134 loadbang;
#X msg 753 158 140;
#X floatatom 753 184 5 0 0 0 - - -;
#X obj 722 276 s Melnotes;
#X obj 157 468 r Melnotes;
#N canvas 0 50 504 655 melSynth 1;
#X floatatom 48 58 5 0 0 0 - - -;
#X obj 51 130 mtof;
#X obj 129 582 dac~;
#X floatatom 242 565 5 0 0 0 - - -;
#X text 281 603 vol;
#X text 93 46 MIDI pitch;
#X obj 141 527 *~;
#X obj 75 339 vcf~ 1, f 16;
#N canvas 0 50 643 393 env 0;
#X obj 91 233 line~;
#X obj 112 96 bng 15 250 50 0 empty empty empty 17 7 0 10 -262144 -1
-1;
#X obj 138 186 pack 0 500;
#X floatatom 198 142 5 0 0 0 - - -;
#X obj 79 37 inlet;
#X obj 201 44 inlet;
#X obj 77 260 outlet~;
#X msg 77 150 1 5;
#X obj 139 152 del 50;
#X connect 0 0 6 0;
#X connect 1 0 7 0;
#X connect 1 0 8 0;
#X connect 2 0 0 0;
#X connect 3 0 2 1;
#X connect 4 0 1 0;
#X connect 5 0 3 0;
#X connect 7 0 0 0;
#X connect 8 0 2 0;
#X restore 138 171 pd env;
#X obj 146 248 *~ 5000;
#X floatatom 208 147 5 0 0 0 - - -;
#N canvas 0 50 564 341 phasors 0;
#X obj 36 142 phasor~;
#X obj 127 82 * 2.01;
#X obj 91 40 inlet;
#X obj 140 302 outlet~;
#X obj 87 252 expr~ $v1 > $v2;
#X obj 207 200 *~ 0.4;
#X obj 186 225 +~ 0.5;
#X obj 218 171 osc~ 3;
#X obj 127 122 osc~;
#X obj 137 175 *~ 0.4;
#X connect 0 0 4 0;
#X connect 1 0 8 0;
#X connect 2 0 0 0;
#X connect 2 0 1 0;
#X connect 4 0 3 0;
#X connect 5 0 6 0;
#X connect 6 0 4 1;
#X connect 7 0 5 0;
#X connect 8 0 9 0;
#X connect 9 0 4 0;
#X restore 53 213 pd phasors;
#X text 104 376 acid washer;
#X obj 51 93 t f b, f 15;
#X obj 249 468 loadbang;
#X msg 245 509 0.5;
#X obj 213 58 loadbang;
#X floatatom 170 124 5 0 0 0 - - -;
#X msg 213 87 90;
#X floatatom 281 308 5 0 0 0 - - -;
#X msg 270 273 0.5;
#X obj 44 24 inlet;
#X obj 317 521 inlet;
#X obj 270 247 loadbang;
#X connect 0 0 13 0;
#X connect 1 0 10 0;
#X connect 1 0 11 0;
#X connect 3 0 6 1;
#X connect 6 0 2 0;
#X connect 6 0 2 1;
#X connect 7 1 6 0;
#X connect 8 0 9 0;
#X connect 9 0 7 1;
#X connect 10 0 9 1;
#X connect 11 0 7 0;
#X connect 13 0 1 0;
#X connect 13 1 8 0;
#X connect 14 0 15 0;
#X connect 15 0 3 0;
#X connect 16 0 18 0;
#X connect 17 0 8 1;
#X connect 18 0 17 0;
#X connect 19 0 7 2;
#X connect 20 0 19 0;
#X connect 21 0 0 0;
#X connect 22 0 3 0;
#X connect 23 0 20 0;
#X restore 178 554 pd melSynth;
#X floatatom 305 593 5 0 0 0 - - -;
#N canvas 772 207 700 384 melTableRead 0;
#X obj 37 37 inlet;
#X obj 35 320 outlet;
#X floatatom 37 251 5 0 0 0 - - -;
#X obj 37 117 + 1;
#X floatatom 27 174 5 0 0 0 - - -;
#X obj 116 27 inlet;
#X obj 36 148 % 12;
#X obj 37 96 i 0;
#X obj 36 220 tabread Melpitches;
#X obj 245 209 table Melpitches;
#X msg 6 64 0;
#X obj 65 66 metro 140;
#X connect 0 0 10 0;
#X connect 0 0 11 0;
#X connect 2 0 1 0;
#X connect 3 0 6 0;
#X connect 4 0 8 0;
#X connect 5 0 11 1;
#X connect 6 0 4 0;
#X connect 6 0 7 1;
#X connect 7 0 3 0;
#X connect 8 0 2 0;
#X connect 10 0 7 1;
#X connect 10 0 4 0;
#X connect 11 0 7 0;
#X restore 697 228 pd melTableRead;
#X text 299 626 MelodyVolume;
#X text 176 581 Melody Synth;
#N canvas 1131 219 700 384 bassTableRead 0;
#X obj 37 37 inlet;
#X obj 43 306 outlet;
#X floatatom 39 268 5 0 0 0 - - -;
#X obj 37 117 + 1;
#X floatatom 37 171 5 0 0 0 - - -;
#X obj 116 27 inlet;
#X obj 36 138 % 12;
#X obj 37 96 i 0;
#X msg 26 72 0;
#X obj 245 209 table BassPitches;
#X obj 36 220 tabread BassPitches;
#X obj 66 69 metro 140;
#X connect 0 0 8 0;
#X connect 0 0 11 0;
#X connect 2 0 1 0;
#X connect 3 0 6 0;
#X connect 4 0 10 0;
#X connect 5 0 11 1;
#X connect 6 0 4 0;
#X connect 6 0 7 1;
#X connect 7 0 3 0;
#X connect 8 0 7 1;
#X connect 10 0 2 0;
#X connect 11 0 7 0;
#X restore 694 328 pd bassTableRead;
#X floatatom 693 372 5 0 0 0 - - -;
#X obj 698 413 s bassNotes;
#X obj 174 191 r bassNotes;
#N canvas 0 50 1021 460 melody 0;
#X obj 111 58 inlet;
#X obj 148 100 f 0;
#X obj 146 124 + 1;
#X floatatom 146 171 5 0 0 0 - - -;
#X obj 147 148 % 4;
#X obj 213 180 sel 0 1 2 3;
#X obj 184 65 inlet;
#X msg 198 96 0;
#X msg 244 210 \; Melpitches 0 58 58 74 0 69 0 68 67 65 62 65 67;
#X msg 206 240 \; Melpitches 0 59 59 74 0 69 0 68 67 65 62 65 67;
#X msg 153 275 \; Melpitches 0 60 60 74 0 69 0 68 67 65 62 65 67;
#X msg 74 313 \; Melpitches 0 62 62 74 0 69 0 68 67 65 62 65 67;
#X connect 0 0 1 0;
#X connect 1 0 2 0;
#X connect 2 0 4 0;
#X connect 3 0 5 0;
#X connect 4 0 1 1;
#X connect 4 0 3 0;
#X connect 5 0 11 0;
#X connect 5 1 10 0;
#X connect 5 2 9 0;
#X connect 5 3 8 0;
#X connect 6 0 7 0;
#X connect 7 0 1 1;
#X connect 7 0 3 0;
#X restore 480 231 pd melody;
#X obj 404 171 vsl 15 128 0 1 0 1 empty empty empty 0 -9 0 10 -258113
-1 -1 0 1;
#X floatatom 309 299 5 0 0 0 - - -;
#X text 180 287 Melody Synth;
#N canvas 0 50 519 655 bassSynth 0;
#X floatatom 48 58 5 0 0 0 - - -;
#X obj 51 130 mtof;
#X obj 129 582 dac~;
#X floatatom 242 565 5 0 0 0 - - -;
#X text 281 603 vol;
#X text 93 46 MIDI pitch;
#X obj 141 527 *~;
#X obj 75 339 vcf~ 1, f 16;
#N canvas 0 50 643 393 env 0;
#X obj 91 233 line~;
#X obj 112 96 bng 15 250 50 0 empty empty empty 17 7 0 10 -262144 -1
-1;
#X obj 138 186 pack 0 500;
#X floatatom 198 142 5 0 0 0 - - -;
#X obj 79 37 inlet;
#X obj 201 44 inlet;
#X obj 77 260 outlet~;
#X msg 77 150 1 5;
#X obj 139 152 del 50;
#X connect 0 0 6 0;
#X connect 1 0 7 0;
#X connect 1 0 8 0;
#X connect 2 0 0 0;
#X connect 3 0 2 1;
#X connect 4 0 1 0;
#X connect 5 0 3 0;
#X connect 7 0 0 0;
#X connect 8 0 2 0;
#X restore 138 171 pd env;
#X obj 146 248 *~ 5000;
#X floatatom 208 147 5 0 0 0 - - -;
#N canvas 0 50 564 341 phasors 0;
#X obj 33 141 phasor~;
#X obj 87 133 phasor~;
#X obj 87 99 * 0.503;
#X obj 163 138 phasor~;
#X obj 163 109 * 2.01;
#X obj 91 40 inlet;
#X obj 126 293 outlet~;
#X obj 158 173 *~ 2;
#X obj 90 169 *~ 0.4;
#X obj 102 261 expr~ $v1 > $v2;
#X obj 207 206 *~ 0.4;
#X obj 191 239 +~ 0.5;
#X obj 207 182 osc~ 3;
#X connect 0 0 9 0;
#X connect 1 0 8 0;
#X connect 2 0 1 0;
#X connect 3 0 7 0;
#X connect 4 0 3 0;
#X connect 5 0 0 0;
#X connect 5 0 2 0;
#X connect 5 0 4 0;
#X connect 9 0 6 0;
#X connect 10 0 11 0;
#X connect 11 0 9 1;
#X connect 12 0 10 0;
#X restore 53 213 pd phasors;
#X text 104 376 acid washer;
#X obj 51 93 t f b, f 15;
#X obj 249 468 loadbang;
#X msg 245 509 0.5;
#X obj 213 58 loadbang;
#X floatatom 173 124 5 0 0 0 - - -;
#X msg 213 87 90;
#X floatatom 281 308 5 0 0 0 - - -;
#X obj 44 24 inlet;
#X obj 317 521 inlet;
#X obj 269 227 loadbang;
#X msg 270 273 1.5;
#X connect 0 0 13 0;
#X connect 1 0 10 0;
#X connect 1 0 11 0;
#X connect 3 0 6 1;
#X connect 6 0 2 0;
#X connect 6 0 2 1;
#X connect 7 1 6 0;
#X connect 8 0 9 0;
#X connect 9 0 7 1;
#X connect 10 0 9 1;
#X connect 11 0 7 0;
#X connect 13 0 1 0;
#X connect 13 1 8 0;
#X connect 14 0 15 0;
#X connect 15 0 3 0;
#X connect 16 0 18 0;
#X connect 17 0 8 1;
#X connect 18 0 17 0;
#X connect 19 0 7 2;
#X connect 20 0 0 0;
#X connect 21 0 3 0;
#X connect 22 0 23 0;
#X connect 23 0 19 0;
#X restore 182 260 pd bassSynth;
#X text 303 332 BassVolume;
#N canvas 0 50 716 362 metroBass1 0;
#X obj 71 49 inlet;
#X obj 207 104 inlet;
#X obj 73 108 metro 1680;
#N canvas 0 50 1021 626 bass1 0;
#X obj 111 58 inlet;
#X obj 145 142 + 1;
#X floatatom 145 189 5 0 0 0 - - -;
#X obj 146 166 % 4;
#X obj 213 180 sel 0 1 2 3;
#X obj 184 65 inlet;
#X msg 198 96 0;
#X msg 223 362 \; BassPitches 0 48 48 0 48 48 0 0 48 48 48 0 48;
#X msg 147 447 \; BassPitches 0 50 50 50 0 50 50 0 0 50 50 50 50;
#X msg 317 285 \; BassPitches 0 46 46 0 46 0 46 47 47 0 48 48 50;
#X msg 270 323 \; BassPitches 0 47 0 47 47 47 0 47 0 47 47 48 46;
#X obj 147 118 i 0;
#X connect 0 0 11 0;
#X connect 1 0 3 0;
#X connect 2 0 4 0;
#X connect 3 0 2 0;
#X connect 3 0 11 1;
#X connect 4 0 8 0;
#X connect 4 1 7 0;
#X connect 4 2 10 0;
#X connect 4 3 9 0;
#X connect 5 0 6 0;
#X connect 6 0 11 1;
#X connect 6 0 2 0;
#X connect 11 0 1 0;
#X restore 97 199 pd bass1;
#X connect 0 0 2 0;
#X connect 1 0 3 1;
#X connect 2 0 3 0;
#X restore 457 419 pd metroBass1;
#N canvas 0 50 667 505 metroBass2 1;
#X obj 71 49 inlet;
#X obj 207 104 inlet;
#X obj 73 108 metro 1680;
#N canvas 0 50 1021 626 bass2 0;
#X obj 111 58 inlet;
#X obj 145 142 + 1;
#X floatatom 145 189 5 0 0 0 - - -;
#X obj 146 166 % 4;
#X obj 213 180 sel 0 1 2 3;
#X obj 184 65 inlet;
#X msg 198 96 0;
#X msg 223 362 \; BassPitches 0 48 48 0 48 48 0 0 48 48 48 0 48;
#X msg 181 416 \; BassPitches 0 50 50 50 0 50 50 0 0 50 50 50 50;
#X obj 147 118 i 0;
#X msg 317 285 \; BassPitches 0 46 46 0 46 0 46 46 46 0 46 46 46;
#X msg 270 323 \; BassPitches 0 47 0 47 47 47 0 47 0 47 47 47 47;
#X connect 0 0 9 0;
#X connect 1 0 3 0;
#X connect 2 0 4 0;
#X connect 3 0 2 0;
#X connect 3 0 9 1;
#X connect 4 0 8 0;
#X connect 4 1 7 0;
#X connect 4 2 11 0;
#X connect 4 3 10 0;
#X connect 5 0 6 0;
#X connect 6 0 9 1;
#X connect 6 0 2 0;
#X connect 9 0 1 0;
#X restore 99 169 pd bass2;
#X connect 0 0 2 0;
#X connect 1 0 3 1;
#X connect 2 0 3 0;
#X restore 579 419 pd metroBass2;
#X obj 565 261 metro 6720;
#X obj 530 367 sel 0 1;
#X floatatom 564 331 5 0 0 0 - - -;
#X obj 559 300 random 2;
#X obj 650 617 s oscOut;
#X floatatom 629 527 5 0 0 0 - - -;
#X msg 722 549 set PD message;
#X obj 660 581 oscformat PD message;
#X connect 0 0 8 0;
#X connect 1 0 11 0;
#X connect 2 0 12 0;
#X connect 2 0 4 0;
#X connect 2 0 19 1;
#X connect 2 0 15 0;
#X connect 2 0 27 0;
#X connect 3 0 2 0;
#X connect 4 0 19 0;
#X connect 5 0 6 0;
#X connect 6 0 7 0;
#X connect 7 0 12 1;
#X connect 9 0 10 0;
#X connect 11 0 10 1;
#X connect 12 0 0 0;
#X connect 15 0 16 0;
#X connect 16 0 17 0;
#X connect 18 0 23 0;
#X connect 20 0 21 0;
#X connect 21 0 23 1;
#X connect 27 0 30 0;
#X connect 28 0 25 0;
#X connect 28 0 25 1;
#X connect 28 1 26 0;
#X connect 28 1 26 1;
#X connect 29 0 28 0;
#X connect 30 0 29 0;
#X connect 32 0 34 0;
#X connect 33 0 34 0;
#X connect 34 0 31 0;
#X restore 438 138 pd music;
#X text 435 112 BGM;
#X connect 2 0 3 0;
#X connect 8 0 2 0;
