#N canvas 239 64 682 398 12;
#N canvas 694 363 450 310 oscSend 0;
#X obj 55 35 r oscOut;
#X obj 55 72 list prepend send;
#X obj 55 113 list trim;
#X obj 54 194 netsend -u -b;
#X obj 212 49 loadbang;
#X msg 212 85 connect localhost 8000;
#X msg 212 115 connect 127.0.0.1 8000;
#X msg 212 144 disconnect;
#X connect 0 0 1 0;
#X connect 1 0 2 0;
#X connect 2 0 3 0;
#X connect 4 0 5 0;
#X connect 5 0 3 0;
#X connect 6 0 3 0;
#X connect 7 0 3 0;
#X restore 132 28 pd oscSend;
#N canvas 747 232 1092 612 oscReceive 0;
#X msg 396 104 listen 8000;
#X msg 427 148 listen 0;
#X obj 396 205 netreceive -u -b;
#X obj 396 63 loadbang;
#X obj 396 245 oscparse;
#X obj 396 275 list trim;
#X floatatom 397 438 5 0 0 0 - - -;
#X obj 397 326 route unity;
#X obj 175 406 route ready;
#X obj 175 441 print;
#X text 57 471 Checks if connection to Unity was successful;
#X text 339 518 Parsed data for footsteps;
#X text 472 63 Immediately bang when PD file is opened;
#X text 498 148 Click to stop listening;
#X text 490 105 Click to listen in to current localhost;
#X text 520 205 How the data is received;
#X text 478 257 Incoming string gets parsed to send incoming data to
the correct routes.;
#X obj 397 477 s jumpSound;
#X obj 397 403 route jump;
#X connect 0 0 2 0;
#X connect 1 0 2 0;
#X connect 2 0 4 0;
#X connect 3 0 0 0;
#X connect 4 0 5 0;
#X connect 5 0 7 0;
#X connect 6 0 17 0;
#X connect 7 0 8 0;
#X connect 7 0 18 0;
#X connect 8 0 9 0;
#X connect 18 0 6 0;
#X restore 132 60 pd oscReceive;
#X obj 14 74 tgl 15 0 empty empty empty 17 7 0 10 -262144 -1 -1 1 1
;
#X msg 14 106 \; pd dsp \$1;
#X text 12 2 Trigger DSP;
#X text 234 60 Used to receive data from Unity scene.;
#X text 211 28 Not needed for this assignment \, but good to review
for later;
#X text 122 107 Sound #1;
#X obj 14 37 loadbang;
#N canvas 920 75 581 790 jump 1;
#X obj 240 149 bng 15 250 50 0 empty empty empty 17 7 0 10 -262144
-1 -1;
#X obj 229 363 vline~;
#X obj 197 408 *~;
#X obj 199 487 dac~;
#X msg 229 324 1 25 \, 0 500 75;
#X obj 133 325 mtof;
#X obj 167 222 nbx 5 14 -1e+037 1e+037 0 1 empty empty empty 0 -8 0
10 -262144 -1 -1 60 256;
#X obj 162 363 osc~;
#X obj 349 282 vsl 15 128 0 1 0 1 empty empty empty 0 -9 0 10 -4032
-1 -1 3500 1;
#X obj 198 449 *~;
#X floatatom 269 429 5 0 0 0 - - -;
#X obj 239 96 r jumpSound;
#X text 87 17 Voice Sound #1: Player character's jump sound by Sam
Nguyen;
#X obj 88 221 random 10;
#X floatatom 131 287 5 0 0 0 - - -;
#X obj 130 257 +;
#X connect 0 0 4 0;
#X connect 0 0 13 0;
#X connect 1 0 2 1;
#X connect 2 0 9 0;
#X connect 4 0 1 0;
#X connect 5 0 7 0;
#X connect 6 0 15 1;
#X connect 7 0 2 0;
#X connect 8 0 10 0;
#X connect 9 0 3 0;
#X connect 9 0 3 1;
#X connect 10 0 9 1;
#X connect 11 0 0 0;
#X connect 13 0 15 0;
#X connect 14 0 5 0;
#X connect 15 0 14 0;
#X restore 127 133 pd jump;
#X connect 2 0 3 0;
#X connect 8 0 2 0;
